<?xml version="1.0" standalone="no"?>
<!DOCTYPE svg PUBLIC "-//W3C//DTD SVG 20010904//EN"
 "http://www.w3.org/TR/2001/REC-SVG-20010904/DTD/svg10.dtd">
<svg version="1.0" xmlns="http://www.w3.org/2000/svg"
 width="642.000000pt" height="642.000000pt" viewBox="0 0 642.000000 642.000000"
 preserveAspectRatio="xMidYMid meet">
<metadata>
Created by potrace 1.11, written by Peter Selinger 2001-2013
</metadata>
<g transform="translate(0.000000,642.000000) scale(0.100000,-0.100000)"
fill="#000000" stroke="none">
<path d="M3187 6074 c-1 -1 -60 -4 -132 -8 -71 -3 -141 -8 -155 -10 -14 -2
-50 -7 -80 -11 -30 -3 -73 -10 -95 -15 -22 -5 -56 -12 -75 -15 -102 -17 -392
-102 -475 -139 -16 -8 -73 -32 -126 -55 -450 -196 -885 -560 -1181 -991 -36
-52 -73 -108 -82 -125 -9 -16 -26 -46 -38 -65 -112 -186 -235 -496 -292 -735
-34 -139 -41 -176 -51 -255 -4 -29 -8 -61 -10 -70 -25 -128 -25 -566 -1 -710
3 -14 9 -56 15 -95 6 -38 13 -81 16 -95 3 -14 7 -36 10 -50 3 -14 14 -61 25
-105 12 -44 23 -87 25 -95 24 -98 121 -342 189 -477 334 -667 911 -1172 1615
-1417 89 -31 222 -69 284 -82 10 -2 26 -5 35 -8 9 -3 33 -8 52 -11 19 -3 42
-8 50 -10 8 -3 35 -7 60 -10 25 -3 56 -7 70 -10 137 -27 559 -27 758 0 194 26
339 60 547 130 187 63 385 156 557 262 96 59 242 160 272 188 6 6 31 26 56 45
78 61 176 155 325 314 18 19 93 110 138 168 28 35 162 237 188 283 119 210
244 507 284 675 2 8 15 62 28 120 14 58 28 124 31 147 3 22 7 52 10 65 39 182
39 607 0 848 -9 52 -18 109 -21 125 -2 17 -14 66 -25 110 -11 44 -22 89 -24
100 -10 51 -82 252 -132 370 -158 369 -405 714 -708 986 -93 84 -112 99 -214
174 -90 67 -116 84 -219 149 -66 42 -241 132 -333 172 -121 52 -363 135 -437
149 -9 2 -16 4 -16 5 0 1 -7 3 -15 5 -8 1 -40 8 -71 14 -30 6 -69 14 -85 17
-16 3 -36 7 -44 9 -8 2 -42 7 -75 11 -33 3 -69 8 -80 10 -26 5 -344 22 -348
18z"/>
</g>
</svg>
